HIERARCHY
ROOT hip
{
  OFFSET 0 0 0
  CHANNELS 6 Xposition Yposition Zposition Zrotation Yrotation Xrotation
  JOINT abdomen
  {
    OFFSET 0 20.6881 -0.73152
    CHANNELS 3 Zrotation Xrotation Yrotation
    JOINT chest
    {
      OFFSET 0 11.7043 -0.48768
      CHANNELS 3 Zrotation Xrotation Yrotation
      JOINT neck
      {
        OFFSET 0 22.1894 -2.19456
        CHANNELS 3 Zrotation Xrotation Yrotation
        JOINT head
        {
          OFFSET -0.24384 7.07133 1.2192
          CHANNELS 3 Zrotation Xrotation Yrotation
          JOINT leftEye
          {
            OFFSET 4.14528 8.04674 8.04672
            CHANNELS 3 Zrotation Xrotation Yrotation
            End Site
            {
              OFFSET 1 0 0
            }
          }
          JOINT rightEye
          {
            OFFSET -3.6576 8.04674 8.04672
            CHANNELS 3 Zrotation Xrotation Yrotation
            End Site
            {
              OFFSET 1 0 0
            }
          }
        }
      }
      JOINT rCollar
      {
        OFFSET -2.68224 19.2634 -4.8768
        CHANNELS 3 Zrotation Xrotation Yrotation
        JOINT rShldr
        {
          OFFSET -8.77824 -1.95073 1.46304
          CHANNELS 3 Zrotation Xrotation Yrotation
          JOINT rForeArm
          {
            OFFSET -28.1742 -1.7115 0.48768
            CHANNELS 3 Zrotation Xrotation Yrotation
            JOINT rHand
            {
              OFFSET -22.5879 0.773209 7.07136
              CHANNELS 3 Zrotation Xrotation Yrotation
              JOINT rThumb1
              {
                OFFSET -1.2192 -0.487915 3.41376
                CHANNELS 3 Zrotation Xrotation Yrotation
                JOINT rThumb2
                {
                  OFFSET -3.37035 -0.52449 3.41376
                  CHANNELS 3 Zrotation Xrotation Yrotation
                  End Site
                  {
                    OFFSET -1.78271 -1.18214 1.43049
                  }
                }
              }
              JOINT rIndex1
              {
                OFFSET -7.75947 0.938293 5.60832
                CHANNELS 3 Zrotation Xrotation Yrotation
                JOINT rIndex2
                {
                  OFFSET -2.54057 -0.884171 1.56538
                  CHANNELS 3 Zrotation Xrotation Yrotation
                  End Site
                  {
                    OFFSET -1.62519 -0.234802 1.16502
                  }
                }
              }
              JOINT rMid1
              {
                OFFSET -8.24714 1.18213 3.41376
                CHANNELS 3 Zrotation Xrotation Yrotation
                JOINT rMid2
                {
                  OFFSET -3.10165 -0.590103 1.0647
                  CHANNELS 3 Zrotation Xrotation Yrotation
                  End Site
                  {
                    OFFSET -2.48547 -0.328903 0.83742
                  }
                }
              }
              JOINT rRing1
              {
                OFFSET -8.82822 0.546677 1.51678
                CHANNELS 3 Zrotation Xrotation Yrotation
                JOINT rRing2
                {
                  OFFSET -2.60934 -0.819778 -0.0198488
                  CHANNELS 3 Zrotation Xrotation Yrotation
                  End Site
                  {
                    OFFSET -2.33842 -0.294052 0.168128
                  }
                }
              }
              JOINT rPinky1
              {
                OFFSET -8.27202 -0.0477905 -0.4584
                CHANNELS 3 Zrotation Xrotation Yrotation
                JOINT rPinky2
                {
                  OFFSET -1.82734 -0.647385 -0.700984
                  CHANNELS 3 Zrotation Xrotation Yrotation
                  End Site
                  {
                    OFFSET -1.69225 -0.51767 -0.607171
                  }
                }
              }
            }
          }
        }
      }
      JOINT lCollar
      {
        OFFSET 2.68224 19.2634 -4.8768
        CHANNELS 3 Zrotation Xrotation Yrotation
        JOINT lShldr
        {
          OFFSET 8.77824 -1.95073 1.46304
          CHANNELS 3 Zrotation Xrotation Yrotation
          JOINT lForeArm
          {
            OFFSET 28.1742 -1.7115 0.48768
            CHANNELS 3 Zrotation Xrotation Yrotation
            JOINT lHand
            {
              OFFSET 22.5879 0.773209 7.07136
              CHANNELS 3 Zrotation Xrotation Yrotation
              JOINT lThumb1
              {
                OFFSET 1.2192 -0.487915 3.41376
                CHANNELS 3 Zrotation Xrotation Yrotation
                JOINT lThumb2
                {
                  OFFSET 3.37035 -0.52449 3.41376
                  CHANNELS 3 Zrotation Xrotation Yrotation
                  End Site
                  {
                    OFFSET 1.78271 -1.18214 1.43049
                  }
                }
              }
              JOINT lIndex1
              {
                OFFSET 7.75947 0.938293 5.60832
                CHANNELS 3 Zrotation Xrotation Yrotation
                JOINT lIndex2
                {
                  OFFSET 2.54057 -0.884171 1.56538
                  CHANNELS 3 Zrotation Xrotation Yrotation
                  End Site
                  {
                    OFFSET 1.62519 -0.234802 1.16502
                  }
                }
              }
              JOINT lMid1
              {
                OFFSET 8.24714 1.18213 3.41376
                CHANNELS 3 Zrotation Xrotation Yrotation
                JOINT lMid2
                {
                  OFFSET 3.10165 -0.590103 1.0647
                  CHANNELS 3 Zrotation Xrotation Yrotation
                  End Site
                  {
                    OFFSET 2.48547 -0.328903 0.83742
                  }
                }
              }
              JOINT lRing1
              {
                OFFSET 8.82822 0.546677 1.51678
                CHANNELS 3 Zrotation Xrotation Yrotation
                JOINT lRing2
                {
                  OFFSET 2.60934 -0.819778 -0.0198488
                  CHANNELS 3 Zrotation Xrotation Yrotation
                  End Site
                  {
                    OFFSET 2.33842 -0.294052 0.168128
                  }
                }
              }
              JOINT lPinky1
              {
                OFFSET 8.27202 -0.0477905 -0.4584
                CHANNELS 3 Zrotation Xrotation Yrotation
                JOINT lPinky2
                {
                  OFFSET 1.82734 -0.647385 -0.700984
                  CHANNELS 3 Zrotation Xrotation Yrotation
                  End Site
                  {
                    OFFSET 1.69225 -0.51767 -0.607171
                  }
                }
              }
            }
          }
        }
      }
    }
  }
  JOINT rButtock
  {
    OFFSET -8.77824 4.35084 1.2192
    CHANNELS 3 Zrotation Xrotation Yrotation
    JOINT rThigh
    {
      OFFSET 0 -1.70687 -2.19456
      CHANNELS 3 Zrotation Xrotation Yrotation
      JOINT rShin
      {
        OFFSET 0 -36.8199 0.73152
        CHANNELS 3 Zrotation Xrotation Yrotation
        JOINT rFoot
        {
          OFFSET 0.73152 -45.1104 -5.12064
          CHANNELS 3 Zrotation Xrotation Yrotation
          End Site
          {
            OFFSET -1.1221 -3.69964 12.103
          }
        }
      }
    }
  }
  JOINT lButtock
  {
    OFFSET 8.77824 4.35084 1.2192
    CHANNELS 3 Zrotation Xrotation Yrotation
    JOINT lThigh
    {
      OFFSET 0 -1.70687 -2.19456
      CHANNELS 3 Zrotation Xrotation Yrotation
      JOINT lShin
      {
        OFFSET 0 -36.8199 0.73152
        CHANNELS 3 Zrotation Xrotation Yrotation
        JOINT lFoot
        {
          OFFSET -0.73152 -45.1104 -5.12064
          CHANNELS 3 Zrotation Xrotation Yrotation
          End Site
          {
            OFFSET 1.1221 -3.69964 12.103
          }
        }
      }
    }
  }
}
MOTION
Frames:	6
Frame Time:	0.03333
0.0 0.0 0.0 0.0 0.0 0.0 0.0 0.0 0.0 0.0 0.0 0.0 0.0 0.0 0.0 0.0 0.0 0.0 0.0 0.0 0.0 0.0 0.0 0.0 0.0 0.0 0.0 0.0 0.0 0.0 0.0 0.0 0.0 0.0 0.0 0.0 0.0 0.0 0.0 0.0 0.0 0.0 0.0 0.0 0.0 0.0 0.0 0.0 0.0 0.0 0.0 0.0 0.0 0.0 0.0 0.0 0.0 0.0 0.0 0.0 0.0 0.0 0.0 0.0 0.0 0.0 0.0 0.0 0.0 0.0 0.0 0.0 0.0 0.0 0.0 0.0 0.0 0.0 0.0 0.0 0.0 0.0 0.0 0.0 0.0 0.0 0.0 0.0 0.0 0.0 0.0 0.0 0.0 0.0 0.0 0.0 0.0 0.0 0.0 0.0 0.0 0.0 0.0 0.0 0.0 0.0 0.0 0.0 0.0 0.0 0.0 0.0 0.0 0.0 0.0 0.0 0.0 0.0 0.0 0.0 0.0 0.0 0.0 0.0 0.0 0.0 0.0 0.0 0.0 0.0 0.0 0.0
-0.09169999999999999 62.8405 0.0315 177.548708 84.091512 176.817049 1.638603 -1.585629 -112.834552 -7.924908 -12.156938 147.501603 -10.539567 -14.288435 -77.341123 34.083564 42.218588 124.206862 -178.025158 1.353821 68.861105 64.382491 2.799933 4.446378 -79.294524 -45.468867 170.157187 8.546328 14.462155 9.991543 -36.981836 -58.488984 132.582758 -22.577268 52.569803 -75.041574 -166.169208 -2.893954 61.588936 11.161825 27.021084 -176.18355 -121.255029 2.869231 156.77369 177.329694 -16.028503 -68.030862 -65.01295 -0.089322 -157.541377 105.267373 16.066435 76.543449 -0.747804 11.105157 -113.131273 28.769637 -5.839853 34.75154 170.525366 23.100343 -58.159718 -154.431979 51.435269 -167.609578 -70.49034 26.910617 -21.823555 156.201606 82.887517 -167.480446 3.530317 -35.095488 -155.086252 -8.247246 -18.315679 70.94308 -174.356231 -1.384101 -40.56291 -144.812961 -24.429374 -121.712917 138.457197 21.936742 -47.735925 15.296844 -64.312052 -8.210024 -35.356411 16.492001 -65.942215 -83.267712 -57.474174 99.762887 14.058963 12.069533 35.20641 -23.635155 -35.259706 52.471799 -40.637101 26.365521 64.68913 -3.43953 22.128911 15.030303 -44.541917 -12.715665 -72.74629 3.25962 46.848374 5.081053 -5.486376 -3.460204 -63.319637 -33.552589 -65.317587 147.424167 0.444977 -54.429725 0.029145 -0.585982 54.404742 -179.27938 -5.538939 3.372193 -129.347426 -67.073655 -20.309672 101.020973
-0.8983 60.796099999999996 2.4861 -158.256412 61.358468 -156.221192 12.46469 14.147445 -24.163773 -1.599259 -11.11873 33.298047 10.918441 17.535129 70.242205 -33.926076 -5.418203 -65.628091 11.508705 0.12003 1.191072 -25.862524 -1.455229 6.331857 -4.893442 21.817948 4.786598 -3.348465 59.849657 71.81501 166.789158 67.000293 99.489154 167.994485 -10.106419 142.890504 -0.046266 -31.762088 -20.682248 5.765841 4.070969 13.79628 -164.588869 -40.162866 139.322464 -143.745681 -6.700607 139.937308 -162.558826 -63.377881 -177.619689 -8.923538 45.50285 0.999197 -163.309279 -3.304202 -166.524965 22.867559 40.486542 -44.169191 -1.629669 25.97518 25.04704 35.053413 58.587671 -10.906027 139.961308 25.579219 -147.91337 -150.690553 4.825089 -157.940069 -104.936317 -30.562971 -59.27724 159.021357 49.138456 -135.429522 -46.189316 -53.373938 1.622612 114.030471 13.385763 -98.433385 108.40574 48.503645 -89.768878 -19.518568 -86.191105 -8.502676 -4.31134 2.110876 -6.736768 167.187089 27.240688 -146.396866 147.516348 8.227449 161.998361 -98.296378 70.985043 86.521861 -0.093985 -17.311846 5.045789 151.215064 20.810133 164.581246 1.215802 -8.258888 -1.372714 -8.934369 -5.601959 -0.0 7.945305 49.744547 -54.814848 -93.796091 -34.662606 6.842846 -111.876623 65.874039 -38.718577 177.018239 18.506518 -146.937856 -8.615273 -68.973054 80.233129 7.182064 13.602187 90.315017
-1.6660000000000001 66.50970000000001 4.6681 -154.79739 61.856196 -154.439645 9.431642 14.176002 126.305027 -4.194406 7.042262 -108.084228 -0.157851 13.951981 -71.621138 25.260878 -7.186743 72.683088 34.029896 5.508796 17.869276 8.48373 -0.517278 -6.965672 -9.211954 35.951709 5.198588 -79.726184 26.325316 136.258847 19.969694 39.913712 -108.859387 174.422394 -9.795535 142.528539 -20.51177 31.811019 -8.303367 90.12025 -59.929313 51.507848 -152.794483 -17.25928 119.885615 -0.374642 11.934289 4.812969 14.780183 -43.447138 -7.668288 -29.189001 -8.921558 13.700186 -156.854073 49.385604 -174.05765 -95.557124 -68.059941 -91.262412 -144.224154 -31.653521 -176.198476 -163.600382 -46.675743 -176.881645 -84.704849 -82.235766 -57.766148 -99.520088 51.775062 79.804552 4.978875 1.193087 -46.897796 0.070183 23.220733 6.26164 172.511694 -16.134133 -88.091734 -2.83397 -47.154629 3.307564 70.244367 40.020084 -23.922136 -7.088207 -32.112193 -85.872462 87.977348 69.948478 -84.911119 8.69235 14.98192 6.847279 131.560939 -33.374504 150.285667 -93.048713 83.275556 58.527353 -66.38122 72.244652 21.421346 97.243357 -12.131917 35.067935 93.924048 26.228568 28.672667 -97.171974 26.978976 93.267218 44.985385 -28.494436 -56.488252 -82.373071 73.371981 -0.142015 110.463684 53.371365 24.347107 -124.306442 -28.319932 -53.423836 -54.762213 52.897358 -7.336298 12.251383 21.958754 54.344635
-2.3996 65.1377 5.861800000000001 -158.372233 58.935656 -157.48418 8.128067 11.093011 143.413368 -2.623429 4.730102 -130.044517 10.845606 8.498141 98.31175 -13.346159 14.458242 -100.616596 32.389717 11.77077 39.082598 3.691189 0.988549 29.976268 -148.838721 38.60085 144.425496 -111.341462 33.390079 69.884404 62.424536 -29.761104 -69.505128 -175.831924 21.798237 138.176971 145.245384 -62.135801 69.585063 17.366787 8.67068 28.894848 11.714549 0.297261 6.550255 10.131091 5.143808 -21.731023 -161.779786 5.259648 133.372357 25.778895 -41.644004 2.584064 -148.650339 -4.671727 167.92511 -23.253427 -61.457511 -23.287075 -58.308168 56.565075 113.739913 18.749537 -20.775816 -44.452608 148.850709 -3.641682 -162.519332 -143.136084 9.778096 172.519995 -90.913742 -17.843604 -65.599665 169.105029 63.047708 -132.319104 -18.35134 -10.828551 -6.79196 98.872699 12.910751 -99.261461 17.853143 -12.827557 5.353962 -76.281144 12.882623 17.176521 28.323654 43.875138 9.272185 136.346914 -1.451804 -105.451076 69.082591 74.362716 -85.517639 7.801506 30.440739 5.584436 83.172883 -32.953922 83.199117 52.486231 32.834549 172.044932 2.120903 10.749036 -11.230793 4.057181 -16.378872 5.311726 -6.210183 55.336135 37.691416 36.376986 -79.820373 -48.764026 -109.706501 33.207181 -26.87011 159.686679 -20.075512 -7.634153 -64.467794 56.550597 139.761165 17.187832 -52.585481 -76.37201
-3.3745 66.4489 6.2904 -156.488186 60.110572 -155.59788 8.178855 8.062488 96.043617 -4.115723 -2.050662 -84.006083 -16.64277 23.654332 -125.688272 17.938891 28.618142 117.748366 9.079222 3.213959 38.920924 -19.145613 -9.062604 50.339433 163.280087 -73.816205 144.452723 102.895732 41.596369 -112.092937 -14.400592 15.324644 76.094109 1.516391 9.066988 -7.744518 -170.228775 -21.255249 92.056291 -31.601037 35.684497 65.100075 7.147494 0.464434 12.444143 10.972663 0.074336 -33.643671 -167.85955 33.758987 111.501152 153.899966 10.055281 105.795608 -102.511761 44.631741 111.33938 -79.665904 63.643261 93.616735 -143.301968 -63.210007 -131.385423 -9.66673 43.328856 27.050932 19.645565 54.254541 -29.22225 -71.469159 -22.77388 -66.548968 -160.978834 -0.937492 -98.924577 -171.2405 1.18807 -139.886455 172.390596 -8.656143 -93.153054 -169.957759 -3.101521 -121.080687 152.682019 -20.433889 -133.716683 167.236561 -12.993568 -125.954335 87.140435 -78.799667 72.054546 -157.956558 47.783062 129.136594 123.487463 35.770723 -152.741665 -19.177532 -1.2601 16.030064 177.41213 52.537523 136.016064 -163.840805 62.178969 -162.935521 96.204822 61.387134 60.008458 -107.234135 54.118391 -155.58859 -70.069763 -15.690859 -131.937132 -127.272511 1.098218 -173.48926 -7.188022 11.41443 10.572502 84.256183 -72.455104 -95.478286 -52.920331 -68.949899 172.654637 -82.512987 23.152461 1.526769
